<svg width="21" height="20" viewBox="0 0 21 20" fill="none" xmlns="http://www.w3.org/2000/svg">
<g clip-path="url(#clip0_16_4)">
<path d="M10.5005 0.5C4.9755 0.5 0.5005 4.86167 0.5005 10.2411C0.5005 14.5457 3.3655 18.1962 7.338 19.4832C7.838 19.5749 8.0213 19.2734 8.0213 19.0148C8.0213 18.7835 8.013 18.1706 8.0088 17.3585C5.2272 17.9459 4.6405 16.0517 4.6405 16.0517C4.1855 14.9274 3.528 14.6267 3.528 14.6267C2.6222 14.0228 3.598 14.0352 3.598 14.0352C4.6022 14.103 5.1297 15.0389 5.1297 15.0389C6.0213 16.5283 7.4705 16.0979 8.0422 15.8493C8.1322 15.219 8.3897 14.7903 8.6755 14.5466C6.4547 14.3029 4.1205 13.4652 4.1205 9.73304C4.1205 8.66988 4.508 7.80085 5.1497 7.11933C5.0372 6.87316 4.6997 5.8827 5.2372 4.54116C5.2372 4.54116 6.0747 4.28012 7.9872 5.53988C8.7872 5.32345 9.6372 5.21606 10.4872 5.2111C11.3372 5.21606 12.1871 5.32345 12.9872 5.53988C14.8871 4.28012 15.7246 4.54116 15.7246 4.54116C16.2621 5.8827 15.9247 6.87316 15.8246 7.11933C16.4621 7.80085 16.8496 8.66988 16.8496 9.73304C16.8496 13.4752 14.5122 14.2987 12.2872 14.5383C12.6372 14.8307 12.9622 15.428 12.9622 16.3408C12.9622 17.6444 12.9497 18.6918 12.9497 19.0082C12.9497 19.2635 13.1247 19.5683 13.6372 19.4708C17.638 18.192 20.5005 14.5391 20.5005 10.2411C20.5005 4.86167 16.023 0.5 10.5005 0.5Z" fill="#212121"/>
</g>
<defs>
<clipPath id="clip0_16_4">
<rect width="19" height="20" fill="white" transform="matrix(0 1 -1 0 20.5 0.5)"/>
</clipPath>
</defs>
</svg>
