<svg width="20" height="20" viewBox="0 0 20 20" fill="none" xmlns="http://www.w3.org/2000/svg">
<g clip-path="url(#clip0_16_6)">
<path d="M13.75 0L6.25 3.27836e-07C2.7988 4.78695e-07 0 2.79875 0 6.25V13.75C0 17.2013 2.7988 20 6.25 20H13.75C17.2012 20 20 17.2012 20 13.75L20 6.25C20 2.79875 17.2012 -1.50859e-07 13.75 0ZM18.125 13.75C18.125 16.1625 16.1625 18.125 13.75 18.125H6.25C3.8375 18.125 1.875 16.1625 1.875 13.75V6.25C1.875 3.8375 3.8375 1.875 6.25 1.875L13.75 1.875C16.1625 1.875 18.125 3.8375 18.125 6.25V13.75Z" fill="black"/>
<path d="M10 5C7.2387 5 5 7.23875 5 10C5 12.7613 7.2388 15 10 15C12.7613 15 15 12.7612 15 10C15 7.23875 12.7613 5 10 5ZM10 13.125C8.2775 13.125 6.875 11.7225 6.875 10C6.875 8.27625 8.2775 6.875 10 6.875C11.7225 6.875 13.125 8.27625 13.125 10C13.125 11.7225 11.7225 13.125 10 13.125Z" fill="black"/>
<path d="M15.3753 5.29099C15.7432 5.29099 16.0415 4.99271 16.0415 4.62475C16.0415 4.25679 15.7432 3.9585 15.3753 3.9585C15.0073 3.9585 14.709 4.25679 14.709 4.62475C14.709 4.99271 15.0073 5.29099 15.3753 5.29099Z" fill="black"/>
</g>
<defs>
<clipPath id="clip0_16_6">
<rect width="20" height="20" fill="white" transform="matrix(0 1 -1 0 20 0)"/>
</clipPath>
</defs>
</svg>
